<svg xmlns="http://www.w3.org/2000/svg" xmlns:xlink="http://www.w3.org/1999/xlink" width="2000" zoomAndPan="magnify" viewBox="0 0 1500 1499.999933" height="2000" preserveAspectRatio="xMidYMid meet" version="1.0"><defs><g/><clipPath id="daaa8a0623"><rect x="0" width="1008" y="0" height="1258"/></clipPath></defs><g transform="matrix(1, 0, 0, 1, 248, 80)"><g clip-path="url(#daaa8a0623)"><g fill="#211d13" fill-opacity="1"><g transform="translate(0.874768, 905.774818)"><g><path d="M 474.15625 343.765625 L 462.296875 332.8125 C 461.078125 331.601562 460.46875 330.390625 460.46875 329.171875 L 457.734375 320.046875 C 457.734375 315.179688 456.820312 310.015625 455 304.546875 C 454.394531 303.335938 454.09375 301.816406 454.09375 299.984375 C 454.09375 298.160156 453.785156 296.644531 453.171875 295.4375 C 453.171875 290.570312 452.867188 285.859375 452.265625 281.296875 C 451.660156 276.734375 450.75 272.328125 449.53125 268.078125 L 449.53125 264.4375 C 448.925781 255.925781 448.015625 247.257812 446.796875 238.4375 C 445.578125 229.625 444.96875 220.960938 444.96875 212.453125 L 444.96875 199.6875 C 444.96875 197.863281 445.117188 196.039062 445.421875 194.21875 C 445.734375 192.394531 445.582031 190.269531 444.96875 187.84375 C 444.96875 184.1875 444.816406 180.078125 444.515625 175.515625 C 444.210938 170.960938 444.0625 166.5625 444.0625 162.3125 C 444.0625 159.269531 444.0625 155.921875 444.0625 152.265625 C 444.0625 148.617188 443.753906 145.28125 443.140625 142.25 C 442.535156 136.164062 441.925781 130.082031 441.3125 124 C 440.707031 117.925781 440.101562 111.847656 439.5 105.765625 C 438.894531 99.691406 438.4375 93.613281 438.125 87.53125 C 437.820312 81.457031 437.671875 75.378906 437.671875 69.296875 C 436.460938 64.429688 435.550781 59.867188 434.9375 55.609375 C 434.332031 51.359375 433.421875 47.109375 432.203125 42.859375 C 430.992188 37.390625 428.867188 33.132812 425.828125 30.09375 C 423.390625 27.050781 421.109375 24.160156 418.984375 21.421875 C 416.859375 18.691406 415.1875 15.804688 413.96875 12.765625 C 412.75 10.335938 411.535156 8.515625 410.328125 7.296875 C 407.285156 4.253906 404.394531 0.757812 401.65625 -3.1875 C 398.925781 -7.144531 396.039062 -10.945312 393 -14.59375 C 389.957031 -20.0625 386.613281 -24.921875 382.96875 -29.171875 C 381.144531 -32.210938 379.164062 -35.097656 377.03125 -37.828125 C 374.90625 -40.566406 373.238281 -43.15625 372.03125 -45.59375 C 370.8125 -48.632812 369.132812 -51.21875 367 -53.34375 C 364.875 -55.46875 362.898438 -57.441406 361.078125 -59.265625 L 326.4375 -97.5625 C 320.96875 -103.644531 315.800781 -109.722656 310.9375 -115.796875 C 309.71875 -118.835938 308.195312 -121.269531 306.375 -123.09375 C 304.550781 -124.914062 302.421875 -127.046875 299.984375 -129.484375 L 278.109375 -152.28125 C 276.285156 -154.707031 274.304688 -156.679688 272.171875 -158.203125 C 270.046875 -159.722656 267.769531 -161.09375 265.34375 -162.3125 C 260.476562 -164.738281 255.613281 -168.382812 250.75 -173.25 C 250.75 -173.851562 250.140625 -174.765625 248.921875 -175.984375 C 245.273438 -178.410156 241.78125 -181.144531 238.4375 -184.1875 C 235.09375 -187.226562 231.90625 -190.269531 228.875 -193.3125 C 225.21875 -196.957031 222.476562 -199.390625 220.65625 -200.609375 C 215.800781 -205.460938 210.785156 -210.015625 205.609375 -214.265625 C 200.441406 -218.523438 195.429688 -223.085938 190.578125 -227.953125 C 188.140625 -230.390625 185.859375 -232.671875 183.734375 -234.796875 C 181.609375 -236.921875 179.632812 -239.203125 177.8125 -241.640625 L 172.328125 -247.109375 C 172.328125 -247.109375 172.175781 -247.109375 171.875 -247.109375 C 171.570312 -247.109375 171.421875 -246.800781 171.421875 -246.1875 L 170.515625 -245.28125 L 170.515625 -244.375 C 173.554688 -232.21875 175.679688 -218.84375 176.890625 -204.25 C 176.890625 -202.425781 177.195312 -201.210938 177.8125 -200.609375 C 179.632812 -194.523438 180.390625 -188.59375 180.078125 -182.8125 C 179.773438 -177.039062 179.019531 -171.117188 177.8125 -165.046875 C 176.59375 -160.179688 177.503906 -156.226562 180.546875 -153.1875 C 181.753906 -151.96875 181.753906 -150.753906 180.546875 -149.546875 C 180.546875 -146.503906 180.546875 -144.984375 180.546875 -144.984375 C 181.148438 -141.941406 181.453125 -138.898438 181.453125 -135.859375 C 181.453125 -132.816406 181.453125 -129.78125 181.453125 -126.75 C 181.453125 -122.488281 181.753906 -119.445312 182.359375 -117.625 C 184.179688 -108.507812 184.789062 -100 184.1875 -92.09375 C 183.582031 -89.664062 183.28125 -86.929688 183.28125 -83.890625 C 183.28125 -80.847656 182.972656 -77.804688 182.359375 -74.765625 C 181.753906 -72.941406 181.601562 -71.269531 181.90625 -69.75 C 182.207031 -68.226562 182.359375 -66.863281 182.359375 -65.65625 C 182.972656 -63.21875 183.429688 -60.9375 183.734375 -58.8125 C 184.035156 -56.6875 183.882812 -54.40625 183.28125 -51.96875 C 183.28125 -46.5 182.0625 -41.640625 179.625 -37.390625 C 175.976562 -31.304688 171.117188 -27.65625 165.046875 -26.4375 C 163.222656 -26.4375 162.003906 -26.132812 161.390625 -25.53125 C 158.347656 -24.3125 156.828125 -22.789062 156.828125 -20.96875 C 156.828125 -17.925781 156.675781 -15.035156 156.375 -12.296875 C 156.070312 -9.566406 155.921875 -6.679688 155.921875 -3.640625 L 155.921875 20.0625 C 156.523438 25.53125 155.3125 31 152.28125 36.46875 C 150.457031 39.507812 148.023438 41.632812 144.984375 42.84375 C 141.941406 44.0625 138.898438 44.367188 135.859375 43.765625 C 127.347656 40.722656 121.878906 35.253906 119.453125 27.359375 L 116.71875 16.40625 C 116.101562 12.15625 115.035156 8.050781 113.515625 4.09375 C 112.003906 0.144531 109.726562 -3.648438 106.6875 -7.296875 C 105.46875 -9.722656 104.25 -12.148438 103.03125 -14.578125 C 101.820312 -17.015625 100.609375 -19.453125 99.390625 -21.890625 C 96.953125 -27.359375 94.972656 -32.976562 93.453125 -38.75 C 91.941406 -44.53125 90.578125 -50.457031 89.359375 -56.53125 C 88.753906 -60.175781 88.453125 -63.671875 88.453125 -67.015625 C 88.453125 -70.359375 88.453125 -73.851562 88.453125 -77.5 C 88.453125 -79.9375 88.296875 -82.367188 87.984375 -84.796875 C 87.679688 -87.234375 87.53125 -89.664062 87.53125 -92.09375 C 86.925781 -96.351562 86.625 -100.609375 86.625 -104.859375 C 86.625 -109.117188 86.625 -113.375 86.625 -117.625 C 86.625 -120.664062 86.625 -124.007812 86.625 -127.65625 C 86.625 -131.300781 86.015625 -134.644531 84.796875 -137.6875 L 84.796875 -141.328125 C 84.796875 -147.410156 84.488281 -153.1875 83.875 -158.65625 C 83.269531 -164.125 82.664062 -169.898438 82.0625 -175.984375 C 82.0625 -177.203125 81.757812 -178.113281 81.15625 -178.71875 C 80.539062 -182.363281 79.929688 -186.160156 79.328125 -190.109375 C 78.722656 -194.066406 77.8125 -197.867188 76.59375 -201.515625 C 75.375 -206.378906 74.304688 -211.238281 73.390625 -216.09375 C 72.484375 -220.957031 71.421875 -225.820312 70.203125 -230.6875 C 69.597656 -234.945312 68.988281 -239.050781 68.375 -243 C 67.769531 -246.945312 66.863281 -251.050781 65.65625 -255.3125 C 65.039062 -257.738281 64.582031 -260.015625 64.28125 -262.140625 C 63.976562 -264.273438 63.828125 -266.554688 63.828125 -268.984375 C 63.222656 -272.628906 62.765625 -276.125 62.453125 -279.46875 C 62.148438 -282.8125 62 -286.003906 62 -289.046875 C 61.394531 -293.910156 60.785156 -298.925781 60.171875 -304.09375 C 59.566406 -309.257812 58.65625 -314.273438 57.4375 -319.140625 C 56.832031 -322.179688 56.378906 -325.375 56.078125 -328.71875 C 55.773438 -332.0625 55.625 -335.25 55.625 -338.28125 C 55.007812 -346.1875 54.242188 -353.785156 53.328125 -361.078125 C 52.421875 -368.378906 51.96875 -375.976562 51.96875 -383.875 C 51.96875 -386.914062 51.816406 -389.800781 51.515625 -392.53125 C 51.210938 -395.269531 51.0625 -397.859375 51.0625 -400.296875 C 50.457031 -405.765625 49.695312 -411.382812 48.78125 -417.15625 C 47.875 -422.9375 47.113281 -428.5625 46.5 -434.03125 L 41.03125 -470.5 C 40.425781 -477.1875 39.816406 -484.175781 39.203125 -491.46875 C 38.597656 -498.769531 38.296875 -505.757812 38.296875 -512.4375 C 38.296875 -516.6875 38.296875 -520.9375 38.296875 -525.1875 C 38.296875 -529.445312 37.992188 -533.707031 37.390625 -537.96875 C 36.171875 -545.863281 36.472656 -553.460938 38.296875 -560.765625 C 40.117188 -569.273438 43.765625 -576.566406 49.234375 -582.640625 C 51.054688 -585.078125 52.878906 -587.207031 54.703125 -589.03125 C 56.523438 -590.851562 58.351562 -592.675781 60.1875 -594.5 C 63.832031 -597.539062 67.929688 -599.664062 72.484375 -600.875 C 77.046875 -602.09375 81.457031 -603.003906 85.71875 -603.609375 C 88.75 -603.609375 91.785156 -603.457031 94.828125 -603.15625 C 97.867188 -602.851562 100.601562 -602.398438 103.03125 -601.796875 C 106.675781 -600.578125 110.472656 -599.816406 114.421875 -599.515625 C 118.378906 -599.210938 122.488281 -599.0625 126.75 -599.0625 C 134.644531 -599.0625 142.390625 -599.0625 149.984375 -599.0625 C 157.585938 -599.0625 165.34375 -598.753906 173.25 -598.140625 C 187.226562 -598.140625 201.515625 -597.226562 216.109375 -595.40625 C 224.617188 -594.1875 232.671875 -592.515625 240.265625 -590.390625 C 247.867188 -588.265625 255.617188 -585.679688 263.515625 -582.640625 C 276.890625 -577.773438 289.351562 -572.304688 300.90625 -566.234375 C 306.375 -563.796875 311.539062 -560.90625 316.40625 -557.5625 C 321.269531 -554.21875 325.828125 -550.421875 330.078125 -546.171875 C 331.898438 -544.347656 333.722656 -542.523438 335.546875 -540.703125 C 337.367188 -538.878906 338.890625 -536.75 340.109375 -534.3125 C 341.929688 -532.488281 343.753906 -530.664062 345.578125 -528.84375 C 347.398438 -527.019531 348.617188 -524.585938 349.234375 -521.546875 C 350.441406 -519.117188 351.046875 -517.90625 351.046875 -517.90625 C 355.304688 -511.832031 358.5 -505.148438 360.625 -497.859375 C 362.75 -490.566406 364.421875 -483.269531 365.640625 -475.96875 C 366.859375 -469.894531 367.007812 -463.96875 366.09375 -458.1875 C 365.1875 -452.414062 364.425781 -446.488281 363.8125 -440.40625 C 363.8125 -436.15625 363.507812 -432.207031 362.90625 -428.5625 C 362.300781 -424.914062 361.390625 -421.269531 360.171875 -417.625 C 359.566406 -411.539062 357.894531 -405.765625 355.15625 -400.296875 C 352.414062 -394.828125 349.53125 -389.660156 346.5 -384.796875 C 346.5 -384.179688 346.191406 -383.722656 345.578125 -383.421875 C 344.972656 -383.117188 344.367188 -382.359375 343.765625 -381.140625 C 339.503906 -376.273438 334.789062 -371.410156 329.625 -366.546875 C 324.457031 -361.691406 318.53125 -357.441406 311.84375 -353.796875 C 309.414062 -352.578125 307.132812 -351.054688 305 -349.234375 C 302.875 -347.410156 300.289062 -345.890625 297.25 -344.671875 C 296.039062 -343.453125 296.039062 -342.238281 297.25 -341.03125 C 299.6875 -338.59375 301.515625 -337.070312 302.734375 -336.46875 C 306.984375 -332.820312 311.382812 -329.171875 315.9375 -325.515625 C 320.5 -321.867188 324.910156 -318.222656 329.171875 -314.578125 C 334.035156 -311.535156 338.289062 -308.039062 341.9375 -304.09375 C 345.582031 -300.144531 349.535156 -296.347656 353.796875 -292.703125 C 358.046875 -288.441406 362.296875 -284.179688 366.546875 -279.921875 C 370.804688 -275.671875 375.066406 -271.421875 379.328125 -267.171875 C 380.535156 -266.554688 381.75 -265.640625 382.96875 -264.421875 C 384.1875 -263.210938 385.398438 -262 386.609375 -260.78125 C 389.648438 -258.351562 392.382812 -255.921875 394.8125 -253.484375 C 397.25 -251.054688 399.679688 -248.320312 402.109375 -245.28125 C 403.328125 -242.851562 404.847656 -240.878906 406.671875 -239.359375 C 408.492188 -237.835938 410.316406 -236.164062 412.140625 -234.34375 C 414.578125 -232.519531 416.707031 -230.695312 418.53125 -228.875 C 420.351562 -227.050781 422.476562 -224.921875 424.90625 -222.484375 C 427.945312 -218.835938 431.289062 -215.035156 434.9375 -211.078125 C 438.582031 -207.128906 442.234375 -203.332031 445.890625 -199.6875 L 451.359375 -193.3125 C 452.566406 -192.09375 453.78125 -190.875 455 -189.65625 C 456.21875 -188.445312 457.128906 -187.234375 457.734375 -186.015625 C 463.203125 -179.929688 468.820312 -173.847656 474.59375 -167.765625 C 480.375 -161.691406 486.304688 -155.3125 492.390625 -148.625 L 497.859375 -143.15625 C 501.503906 -140.726562 504.992188 -137.535156 508.328125 -133.578125 C 511.671875 -129.628906 514.863281 -126.132812 517.90625 -123.09375 C 520.332031 -121.269531 522.15625 -118.535156 523.375 -114.890625 C 523.976562 -113.066406 524.582031 -111.394531 525.1875 -109.875 C 525.800781 -108.351562 526.410156 -106.679688 527.015625 -104.859375 C 528.835938 -99.992188 529.445312 -95.4375 528.84375 -91.1875 C 528.238281 -89.96875 527.9375 -87.835938 527.9375 -84.796875 C 527.9375 -79.929688 526.867188 -75.367188 524.734375 -71.109375 C 522.609375 -66.859375 520.023438 -62.910156 516.984375 -59.265625 L 508.796875 -51.96875 C 501.503906 -44.675781 496.945312 -35.253906 495.125 -23.703125 C 494.507812 -17.628906 494.050781 -11.550781 493.75 -5.46875 C 493.445312 0.601562 493.296875 6.984375 493.296875 13.671875 C 493.296875 20.359375 493.296875 27.046875 493.296875 33.734375 C 493.296875 40.421875 493.597656 47.109375 494.203125 53.796875 L 494.203125 65.65625 C 494.816406 67.476562 495.125 70.820312 495.125 75.6875 L 495.125 200.609375 C 495.125 204.859375 494.96875 209.257812 494.65625 213.8125 C 494.351562 218.375 494.203125 223.085938 494.203125 227.953125 C 493.597656 230.390625 493.296875 232.820312 493.296875 235.25 C 493.296875 237.6875 493.296875 240.117188 493.296875 242.546875 L 493.296875 260.78125 C 493.296875 263.820312 493.597656 266.253906 494.203125 268.078125 C 495.421875 277.804688 495.878906 287.53125 495.578125 297.25 C 495.273438 306.976562 495.425781 317.007812 496.03125 327.34375 C 496.03125 332.8125 493.597656 337.976562 488.734375 342.84375 C 483.867188 347.707031 479.007812 348.015625 474.15625 343.765625 Z M 155.921875 -383.875 C 156.523438 -384.488281 157.128906 -384.796875 157.734375 -384.796875 C 158.347656 -384.796875 158.957031 -385.097656 159.5625 -385.703125 C 169.289062 -392.390625 179.019531 -395.429688 188.75 -394.828125 C 192.394531 -394.828125 195.128906 -394.519531 196.953125 -393.90625 C 201.816406 -392.695312 206.070312 -393.609375 209.71875 -396.640625 C 215.1875 -399.679688 220.65625 -402.265625 226.125 -404.390625 C 231.601562 -406.523438 236.773438 -409.109375 241.640625 -412.140625 C 242.242188 -412.140625 242.546875 -412.289062 242.546875 -412.59375 C 242.546875 -412.90625 242.847656 -413.0625 243.453125 -413.0625 C 251.359375 -415.488281 258.65625 -419.742188 265.34375 -425.828125 C 271.414062 -430.078125 274.910156 -432.960938 275.828125 -434.484375 C 276.742188 -436.003906 277.804688 -440.71875 279.015625 -448.625 L 279.015625 -452.265625 C 279.015625 -455.910156 278.710938 -459.253906 278.109375 -462.296875 C 277.503906 -465.335938 277.203125 -468.070312 277.203125 -470.5 C 275.367188 -477.1875 271.71875 -482.351562 266.25 -486 C 260.78125 -489.644531 255.003906 -492.378906 248.921875 -494.203125 C 242.242188 -497.242188 235.253906 -499.523438 227.953125 -501.046875 C 220.660156 -502.566406 213.671875 -503.9375 206.984375 -505.15625 C 206.378906 -505.15625 205.921875 -505.304688 205.609375 -505.609375 C 205.304688 -505.910156 204.851562 -506.0625 204.25 -506.0625 C 198.164062 -507.28125 192.695312 -506.066406 187.84375 -502.421875 C 187.84375 -502.421875 187.6875 -502.421875 187.375 -502.421875 C 187.070312 -502.421875 186.617188 -502.113281 186.015625 -501.5 C 179.328125 -497.851562 173.25 -496.941406 167.78125 -498.765625 L 163.21875 -498.765625 C 154.101562 -498.765625 147.71875 -494.816406 144.0625 -486.921875 C 142.851562 -483.265625 142.25 -480.523438 142.25 -478.703125 C 142.25 -475.671875 142.25 -472.328125 142.25 -468.671875 C 142.25 -465.023438 142.550781 -461.6875 143.15625 -458.65625 C 144.375 -455 144.984375 -452.257812 144.984375 -450.4375 C 144.984375 -446.1875 145.285156 -442.238281 145.890625 -438.59375 C 146.492188 -434.945312 147.101562 -431.296875 147.71875 -427.640625 C 148.320312 -427.035156 148.625 -425.820312 148.625 -424 C 148.019531 -421.570312 147.867188 -419.441406 148.171875 -417.609375 C 148.472656 -415.785156 148.625 -413.660156 148.625 -411.234375 C 149.238281 -408.804688 149.695312 -406.675781 150 -404.84375 C 150.300781 -403.019531 150.148438 -401.195312 149.546875 -399.375 C 149.546875 -394.519531 150.457031 -389.660156 152.28125 -384.796875 C 152.28125 -384.179688 152.734375 -383.722656 153.640625 -383.421875 C 154.554688 -383.117188 155.316406 -383.269531 155.921875 -383.875 Z M 155.921875 -383.875 "/></g></g></g><g fill="#211d13" fill-opacity="1"><g transform="translate(471.344848, 905.774818)"><g><path d="M 474.15625 343.765625 L 462.296875 332.8125 C 461.078125 331.601562 460.46875 330.390625 460.46875 329.171875 L 457.734375 320.046875 C 457.734375 315.179688 456.820312 310.015625 455 304.546875 C 454.394531 303.335938 454.09375 301.816406 454.09375 299.984375 C 454.09375 298.160156 453.785156 296.644531 453.171875 295.4375 C 453.171875 290.570312 452.867188 285.859375 452.265625 281.296875 C 451.660156 276.734375 450.75 272.328125 449.53125 268.078125 L 449.53125 264.4375 C 448.925781 255.925781 448.015625 247.257812 446.796875 238.4375 C 445.578125 229.625 444.96875 220.960938 444.96875 212.453125 L 444.96875 199.6875 C 444.96875 197.863281 445.117188 196.039062 445.421875 194.21875 C 445.734375 192.394531 445.582031 190.269531 444.96875 187.84375 C 444.96875 184.1875 444.816406 180.078125 444.515625 175.515625 C 444.210938 170.960938 444.0625 166.5625 444.0625 162.3125 C 444.0625 159.269531 444.0625 155.921875 444.0625 152.265625 C 444.0625 148.617188 443.753906 145.28125 443.140625 142.25 C 442.535156 136.164062 441.925781 130.082031 441.3125 124 C 440.707031 117.925781 440.101562 111.847656 439.5 105.765625 C 438.894531 99.691406 438.4375 93.613281 438.125 87.53125 C 437.820312 81.457031 437.671875 75.378906 437.671875 69.296875 C 436.460938 64.429688 435.550781 59.867188 434.9375 55.609375 C 434.332031 51.359375 433.421875 47.109375 432.203125 42.859375 C 430.992188 37.390625 428.867188 33.132812 425.828125 30.09375 C 423.390625 27.050781 421.109375 24.160156 418.984375 21.421875 C 416.859375 18.691406 415.1875 15.804688 413.96875 12.765625 C 412.75 10.335938 411.535156 8.515625 410.328125 7.296875 C 407.285156 4.253906 404.394531 0.757812 401.65625 -3.1875 C 398.925781 -7.144531 396.039062 -10.945312 393 -14.59375 C 389.957031 -20.0625 386.613281 -24.921875 382.96875 -29.171875 C 381.144531 -32.210938 379.164062 -35.097656 377.03125 -37.828125 C 374.90625 -40.566406 373.238281 -43.15625 372.03125 -45.59375 C 370.8125 -48.632812 369.132812 -51.21875 367 -53.34375 C 364.875 -55.46875 362.898438 -57.441406 361.078125 -59.265625 L 326.4375 -97.5625 C 320.96875 -103.644531 315.800781 -109.722656 310.9375 -115.796875 C 309.71875 -118.835938 308.195312 -121.269531 306.375 -123.09375 C 304.550781 -124.914062 302.421875 -127.046875 299.984375 -129.484375 L 278.109375 -152.28125 C 276.285156 -154.707031 274.304688 -156.679688 272.171875 -158.203125 C 270.046875 -159.722656 267.769531 -161.09375 265.34375 -162.3125 C 260.476562 -164.738281 255.613281 -168.382812 250.75 -173.25 C 250.75 -173.851562 250.140625 -174.765625 248.921875 -175.984375 C 245.273438 -178.410156 241.78125 -181.144531 238.4375 -184.1875 C 235.09375 -187.226562 231.90625 -190.269531 228.875 -193.3125 C 225.21875 -196.957031 222.476562 -199.390625 220.65625 -200.609375 C 215.800781 -205.460938 210.785156 -210.015625 205.609375 -214.265625 C 200.441406 -218.523438 195.429688 -223.085938 190.578125 -227.953125 C 188.140625 -230.390625 185.859375 -232.671875 183.734375 -234.796875 C 181.609375 -236.921875 179.632812 -239.203125 177.8125 -241.640625 L 172.328125 -247.109375 C 172.328125 -247.109375 172.175781 -247.109375 171.875 -247.109375 C 171.570312 -247.109375 171.421875 -246.800781 171.421875 -246.1875 L 170.515625 -245.28125 L 170.515625 -244.375 C 173.554688 -232.21875 175.679688 -218.84375 176.890625 -204.25 C 176.890625 -202.425781 177.195312 -201.210938 177.8125 -200.609375 C 179.632812 -194.523438 180.390625 -188.59375 180.078125 -182.8125 C 179.773438 -177.039062 179.019531 -171.117188 177.8125 -165.046875 C 176.59375 -160.179688 177.503906 -156.226562 180.546875 -153.1875 C 181.753906 -151.96875 181.753906 -150.753906 180.546875 -149.546875 C 180.546875 -146.503906 180.546875 -144.984375 180.546875 -144.984375 C 181.148438 -141.941406 181.453125 -138.898438 181.453125 -135.859375 C 181.453125 -132.816406 181.453125 -129.78125 181.453125 -126.75 C 181.453125 -122.488281 181.753906 -119.445312 182.359375 -117.625 C 184.179688 -108.507812 184.789062 -100 184.1875 -92.09375 C 183.582031 -89.664062 183.28125 -86.929688 183.28125 -83.890625 C 183.28125 -80.847656 182.972656 -77.804688 182.359375 -74.765625 C 181.753906 -72.941406 181.601562 -71.269531 181.90625 -69.75 C 182.207031 -68.226562 182.359375 -66.863281 182.359375 -65.65625 C 182.972656 -63.21875 183.429688 -60.9375 183.734375 -58.8125 C 184.035156 -56.6875 183.882812 -54.40625 183.28125 -51.96875 C 183.28125 -46.5 182.0625 -41.640625 179.625 -37.390625 C 175.976562 -31.304688 171.117188 -27.65625 165.046875 -26.4375 C 163.222656 -26.4375 162.003906 -26.132812 161.390625 -25.53125 C 158.347656 -24.3125 156.828125 -22.789062 156.828125 -20.96875 C 156.828125 -17.925781 156.675781 -15.035156 156.375 -12.296875 C 156.070312 -9.566406 155.921875 -6.679688 155.921875 -3.640625 L 155.921875 20.0625 C 156.523438 25.53125 155.3125 31 152.28125 36.46875 C 150.457031 39.507812 148.023438 41.632812 144.984375 42.84375 C 141.941406 44.0625 138.898438 44.367188 135.859375 43.765625 C 127.347656 40.722656 121.878906 35.253906 119.453125 27.359375 L 116.71875 16.40625 C 116.101562 12.15625 115.035156 8.050781 113.515625 4.09375 C 112.003906 0.144531 109.726562 -3.648438 106.6875 -7.296875 C 105.46875 -9.722656 104.25 -12.148438 103.03125 -14.578125 C 101.820312 -17.015625 100.609375 -19.453125 99.390625 -21.890625 C 96.953125 -27.359375 94.972656 -32.976562 93.453125 -38.75 C 91.941406 -44.53125 90.578125 -50.457031 89.359375 -56.53125 C 88.753906 -60.175781 88.453125 -63.671875 88.453125 -67.015625 C 88.453125 -70.359375 88.453125 -73.851562 88.453125 -77.5 C 88.453125 -79.9375 88.296875 -82.367188 87.984375 -84.796875 C 87.679688 -87.234375 87.53125 -89.664062 87.53125 -92.09375 C 86.925781 -96.351562 86.625 -100.609375 86.625 -104.859375 C 86.625 -109.117188 86.625 -113.375 86.625 -117.625 C 86.625 -120.664062 86.625 -124.007812 86.625 -127.65625 C 86.625 -131.300781 86.015625 -134.644531 84.796875 -137.6875 L 84.796875 -141.328125 C 84.796875 -147.410156 84.488281 -153.1875 83.875 -158.65625 C 83.269531 -164.125 82.664062 -169.898438 82.0625 -175.984375 C 82.0625 -177.203125 81.757812 -178.113281 81.15625 -178.71875 C 80.539062 -182.363281 79.929688 -186.160156 79.328125 -190.109375 C 78.722656 -194.066406 77.8125 -197.867188 76.59375 -201.515625 C 75.375 -206.378906 74.304688 -211.238281 73.390625 -216.09375 C 72.484375 -220.957031 71.421875 -225.820312 70.203125 -230.6875 C 69.597656 -234.945312 68.988281 -239.050781 68.375 -243 C 67.769531 -246.945312 66.863281 -251.050781 65.65625 -255.3125 C 65.039062 -257.738281 64.582031 -260.015625 64.28125 -262.140625 C 63.976562 -264.273438 63.828125 -266.554688 63.828125 -268.984375 C 63.222656 -272.628906 62.765625 -276.125 62.453125 -279.46875 C 62.148438 -282.8125 62 -286.003906 62 -289.046875 C 61.394531 -293.910156 60.785156 -298.925781 60.171875 -304.09375 C 59.566406 -309.257812 58.65625 -314.273438 57.4375 -319.140625 C 56.832031 -322.179688 56.378906 -325.375 56.078125 -328.71875 C 55.773438 -332.0625 55.625 -335.25 55.625 -338.28125 C 55.007812 -346.1875 54.242188 -353.785156 53.328125 -361.078125 C 52.421875 -368.378906 51.96875 -375.976562 51.96875 -383.875 C 51.96875 -386.914062 51.816406 -389.800781 51.515625 -392.53125 C 51.210938 -395.269531 51.0625 -397.859375 51.0625 -400.296875 C 50.457031 -405.765625 49.695312 -411.382812 48.78125 -417.15625 C 47.875 -422.9375 47.113281 -428.5625 46.5 -434.03125 L 41.03125 -470.5 C 40.425781 -477.1875 39.816406 -484.175781 39.203125 -491.46875 C 38.597656 -498.769531 38.296875 -505.757812 38.296875 -512.4375 C 38.296875 -516.6875 38.296875 -520.9375 38.296875 -525.1875 C 38.296875 -529.445312 37.992188 -533.707031 37.390625 -537.96875 C 36.171875 -545.863281 36.472656 -553.460938 38.296875 -560.765625 C 40.117188 -569.273438 43.765625 -576.566406 49.234375 -582.640625 C 51.054688 -585.078125 52.878906 -587.207031 54.703125 -589.03125 C 56.523438 -590.851562 58.351562 -592.675781 60.1875 -594.5 C 63.832031 -597.539062 67.929688 -599.664062 72.484375 -600.875 C 77.046875 -602.09375 81.457031 -603.003906 85.71875 -603.609375 C 88.75 -603.609375 91.785156 -603.457031 94.828125 -603.15625 C 97.867188 -602.851562 100.601562 -602.398438 103.03125 -601.796875 C 106.675781 -600.578125 110.472656 -599.816406 114.421875 -599.515625 C 118.378906 -599.210938 122.488281 -599.0625 126.75 -599.0625 C 134.644531 -599.0625 142.390625 -599.0625 149.984375 -599.0625 C 157.585938 -599.0625 165.34375 -598.753906 173.25 -598.140625 C 187.226562 -598.140625 201.515625 -597.226562 216.109375 -595.40625 C 224.617188 -594.1875 232.671875 -592.515625 240.265625 -590.390625 C 247.867188 -588.265625 255.617188 -585.679688 263.515625 -582.640625 C 276.890625 -577.773438 289.351562 -572.304688 300.90625 -566.234375 C 306.375 -563.796875 311.539062 -560.90625 316.40625 -557.5625 C 321.269531 -554.21875 325.828125 -550.421875 330.078125 -546.171875 C 331.898438 -544.347656 333.722656 -542.523438 335.546875 -540.703125 C 337.367188 -538.878906 338.890625 -536.75 340.109375 -534.3125 C 341.929688 -532.488281 343.753906 -530.664062 345.578125 -528.84375 C 347.398438 -527.019531 348.617188 -524.585938 349.234375 -521.546875 C 350.441406 -519.117188 351.046875 -517.90625 351.046875 -517.90625 C 355.304688 -511.832031 358.5 -505.148438 360.625 -497.859375 C 362.75 -490.566406 364.421875 -483.269531 365.640625 -475.96875 C 366.859375 -469.894531 367.007812 -463.96875 366.09375 -458.1875 C 365.1875 -452.414062 364.425781 -446.488281 363.8125 -440.40625 C 363.8125 -436.15625 363.507812 -432.207031 362.90625 -428.5625 C 362.300781 -424.914062 361.390625 -421.269531 360.171875 -417.625 C 359.566406 -411.539062 357.894531 -405.765625 355.15625 -400.296875 C 352.414062 -394.828125 349.53125 -389.660156 346.5 -384.796875 C 346.5 -384.179688 346.191406 -383.722656 345.578125 -383.421875 C 344.972656 -383.117188 344.367188 -382.359375 343.765625 -381.140625 C 339.503906 -376.273438 334.789062 -371.410156 329.625 -366.546875 C 324.457031 -361.691406 318.53125 -357.441406 311.84375 -353.796875 C 309.414062 -352.578125 307.132812 -351.054688 305 -349.234375 C 302.875 -347.410156 300.289062 -345.890625 297.25 -344.671875 C 296.039062 -343.453125 296.039062 -342.238281 297.25 -341.03125 C 299.6875 -338.59375 301.515625 -337.070312 302.734375 -336.46875 C 306.984375 -332.820312 311.382812 -329.171875 315.9375 -325.515625 C 320.5 -321.867188 324.910156 -318.222656 329.171875 -314.578125 C 334.035156 -311.535156 338.289062 -308.039062 341.9375 -304.09375 C 345.582031 -300.144531 349.535156 -296.347656 353.796875 -292.703125 C 358.046875 -288.441406 362.296875 -284.179688 366.546875 -279.921875 C 370.804688 -275.671875 375.066406 -271.421875 379.328125 -267.171875 C 380.535156 -266.554688 381.75 -265.640625 382.96875 -264.421875 C 384.1875 -263.210938 385.398438 -262 386.609375 -260.78125 C 389.648438 -258.351562 392.382812 -255.921875 394.8125 -253.484375 C 397.25 -251.054688 399.679688 -248.320312 402.109375 -245.28125 C 403.328125 -242.851562 404.847656 -240.878906 406.671875 -239.359375 C 408.492188 -237.835938 410.316406 -236.164062 412.140625 -234.34375 C 414.578125 -232.519531 416.707031 -230.695312 418.53125 -228.875 C 420.351562 -227.050781 422.476562 -224.921875 424.90625 -222.484375 C 427.945312 -218.835938 431.289062 -215.035156 434.9375 -211.078125 C 438.582031 -207.128906 442.234375 -203.332031 445.890625 -199.6875 L 451.359375 -193.3125 C 452.566406 -192.09375 453.78125 -190.875 455 -189.65625 C 456.21875 -188.445312 457.128906 -187.234375 457.734375 -186.015625 C 463.203125 -179.929688 468.820312 -173.847656 474.59375 -167.765625 C 480.375 -161.691406 486.304688 -155.3125 492.390625 -148.625 L 497.859375 -143.15625 C 501.503906 -140.726562 504.992188 -137.535156 508.328125 -133.578125 C 511.671875 -129.628906 514.863281 -126.132812 517.90625 -123.09375 C 520.332031 -121.269531 522.15625 -118.535156 523.375 -114.890625 C 523.976562 -113.066406 524.582031 -111.394531 525.1875 -109.875 C 525.800781 -108.351562 526.410156 -106.679688 527.015625 -104.859375 C 528.835938 -99.992188 529.445312 -95.4375 528.84375 -91.1875 C 528.238281 -89.96875 527.9375 -87.835938 527.9375 -84.796875 C 527.9375 -79.929688 526.867188 -75.367188 524.734375 -71.109375 C 522.609375 -66.859375 520.023438 -62.910156 516.984375 -59.265625 L 508.796875 -51.96875 C 501.503906 -44.675781 496.945312 -35.253906 495.125 -23.703125 C 494.507812 -17.628906 494.050781 -11.550781 493.75 -5.46875 C 493.445312 0.601562 493.296875 6.984375 493.296875 13.671875 C 493.296875 20.359375 493.296875 27.046875 493.296875 33.734375 C 493.296875 40.421875 493.597656 47.109375 494.203125 53.796875 L 494.203125 65.65625 C 494.816406 67.476562 495.125 70.820312 495.125 75.6875 L 495.125 200.609375 C 495.125 204.859375 494.96875 209.257812 494.65625 213.8125 C 494.351562 218.375 494.203125 223.085938 494.203125 227.953125 C 493.597656 230.390625 493.296875 232.820312 493.296875 235.25 C 493.296875 237.6875 493.296875 240.117188 493.296875 242.546875 L 493.296875 260.78125 C 493.296875 263.820312 493.597656 266.253906 494.203125 268.078125 C 495.421875 277.804688 495.878906 287.53125 495.578125 297.25 C 495.273438 306.976562 495.425781 317.007812 496.03125 327.34375 C 496.03125 332.8125 493.597656 337.976562 488.734375 342.84375 C 483.867188 347.707031 479.007812 348.015625 474.15625 343.765625 Z M 155.921875 -383.875 C 156.523438 -384.488281 157.128906 -384.796875 157.734375 -384.796875 C 158.347656 -384.796875 158.957031 -385.097656 159.5625 -385.703125 C 169.289062 -392.390625 179.019531 -395.429688 188.75 -394.828125 C 192.394531 -394.828125 195.128906 -394.519531 196.953125 -393.90625 C 201.816406 -392.695312 206.070312 -393.609375 209.71875 -396.640625 C 215.1875 -399.679688 220.65625 -402.265625 226.125 -404.390625 C 231.601562 -406.523438 236.773438 -409.109375 241.640625 -412.140625 C 242.242188 -412.140625 242.546875 -412.289062 242.546875 -412.59375 C 242.546875 -412.90625 242.847656 -413.0625 243.453125 -413.0625 C 251.359375 -415.488281 258.65625 -419.742188 265.34375 -425.828125 C 271.414062 -430.078125 274.910156 -432.960938 275.828125 -434.484375 C 276.742188 -436.003906 277.804688 -440.71875 279.015625 -448.625 L 279.015625 -452.265625 C 279.015625 -455.910156 278.710938 -459.253906 278.109375 -462.296875 C 277.503906 -465.335938 277.203125 -468.070312 277.203125 -470.5 C 275.367188 -477.1875 271.71875 -482.351562 266.25 -486 C 260.78125 -489.644531 255.003906 -492.378906 248.921875 -494.203125 C 242.242188 -497.242188 235.253906 -499.523438 227.953125 -501.046875 C 220.660156 -502.566406 213.671875 -503.9375 206.984375 -505.15625 C 206.378906 -505.15625 205.921875 -505.304688 205.609375 -505.609375 C 205.304688 -505.910156 204.851562 -506.0625 204.25 -506.0625 C 198.164062 -507.28125 192.695312 -506.066406 187.84375 -502.421875 C 187.84375 -502.421875 187.6875 -502.421875 187.375 -502.421875 C 187.070312 -502.421875 186.617188 -502.113281 186.015625 -501.5 C 179.328125 -497.851562 173.25 -496.941406 167.78125 -498.765625 L 163.21875 -498.765625 C 154.101562 -498.765625 147.71875 -494.816406 144.0625 -486.921875 C 142.851562 -483.265625 142.25 -480.523438 142.25 -478.703125 C 142.25 -475.671875 142.25 -472.328125 142.25 -468.671875 C 142.25 -465.023438 142.550781 -461.6875 143.15625 -458.65625 C 144.375 -455 144.984375 -452.257812 144.984375 -450.4375 C 144.984375 -446.1875 145.285156 -442.238281 145.890625 -438.59375 C 146.492188 -434.945312 147.101562 -431.296875 147.71875 -427.640625 C 148.320312 -427.035156 148.625 -425.820312 148.625 -424 C 148.019531 -421.570312 147.867188 -419.441406 148.171875 -417.609375 C 148.472656 -415.785156 148.625 -413.660156 148.625 -411.234375 C 149.238281 -408.804688 149.695312 -406.675781 150 -404.84375 C 150.300781 -403.019531 150.148438 -401.195312 149.546875 -399.375 C 149.546875 -394.519531 150.457031 -389.660156 152.28125 -384.796875 C 152.28125 -384.179688 152.734375 -383.722656 153.640625 -383.421875 C 154.554688 -383.117188 155.316406 -383.269531 155.921875 -383.875 Z M 155.921875 -383.875 "/></g></g></g></g></g></svg>